  0
SECTION
  2
HEADER
  9
$ANGBASE
  50
0.0
  9
$ANGDIR
  70
  1
  9
$MEASUREMENT
  70
0
  0
ENDSEC
  0
SECTION
  2
TABLES
  0
TABLE
  2
LTYPE
  70
4
  0
LTYPE
  5
40F
  2
CONTINUOUS
  70
0
  3
Solid line
  72
65
  73
0
  40
0.0
  0
LTYPE
  5
410
  2
DASHDOT
 70
0
  3
Dash Dot ____ _ ____ _
 72
65
 73
4
 40
2.0
 49
1.25
 49
-0.25
 49
0.25
 49
-0.25
  0
LTYPE
  5
411
  2
DASHED
 70
0
  3
Dashed __ __ __ __ __
 72
65
 73
2
 40
0.75
 49
0.5
 49
-0.25
  0
LTYPE
  5
43B
  2
DOTTED
 70
0
  3
Dotted .  .  .  .
 72
65
 73
2
 40
0.2
 49
0.0
 49
-0.2
  0
ENDTAB
  0
TABLE
  2
STYLE
  70
4
  0
STYLE
  2
KICAD
  70
0
  40
0
  41
1
  42
1
  50
0
  71
0
  3
isocp.shx
  0
STYLE
  2
KICADB
  70
0
  40
0
  41
1
  42
1
  50
0
  71
0
  3
isocp.shx
  0
STYLE
  2
KICADI
  70
0
  40
0
  41
1
  42
1
  50
15
  71
0
  3
isocp.shx
  0
STYLE
  2
KICADBI
  70
0
  40
0
  41
1
  42
1
  50
15
  71
0
  3
isocp.shx
  0
ENDTAB
  0
TABLE
  2
LAYER
  70
30
  0
LAYER
  2
BLACK
  70
0
  62
7
  6
CONTINUOUS
  0
LAYER
  2
GRAY1
  70
0
  62
251
  6
CONTINUOUS
  0
LAYER
  2
GRAY2
  70
0
  62
8
  6
CONTINUOUS
  0
LAYER
  2
GRAY3
  70
0
  62
9
  6
CONTINUOUS
  0
LAYER
  2
WHITE
  70
0
  62
7
  6
CONTINUOUS
  0
LAYER
  2
LYELLOW
  70
0
  62
51
  6
CONTINUOUS
  0
LAYER
  2
BLUE1
  70
0
  62
178
  6
CONTINUOUS
  0
LAYER
  2
GREEN1
  70
0
  62
98
  6
CONTINUOUS
  0
LAYER
  2
CYAN1
  70
0
  62
138
  6
CONTINUOUS
  0
LAYER
  2
RED1
  70
0
  62
18
  6
CONTINUOUS
  0
LAYER
  2
MAGENTA1
  70
0
  62
228
  6
CONTINUOUS
  0
LAYER
  2
BROWN1
  70
0
  62
58
  6
CONTINUOUS
  0
LAYER
  2
BLUE2
  70
0
  62
5
  6
CONTINUOUS
  0
LAYER
  2
GREEN2
  70
0
  62
3
  6
CONTINUOUS
  0
LAYER
  2
CYAN2
  70
0
  62
4
  6
CONTINUOUS
  0
LAYER
  2
RED2
  70
0
  62
1
  6
CONTINUOUS
  0
LAYER
  2
MAGENTA2
  70
0
  62
6
  6
CONTINUOUS
  0
LAYER
  2
BROWN2
  70
0
  62
54
  6
CONTINUOUS
  0
LAYER
  2
BLUE3
  70
0
  62
171
  6
CONTINUOUS
  0
LAYER
  2
GREEN3
  70
0
  62
91
  6
CONTINUOUS
  0
LAYER
  2
CYAN3
  70
0
  62
131
  6
CONTINUOUS
  0
LAYER
  2
RED3
  70
0
  62
11
  6
CONTINUOUS
  0
LAYER
  2
MAGENTA3
  70
0
  62
221
  6
CONTINUOUS
  0
LAYER
  2
YELLOW3
  70
0
  62
2
  6
CONTINUOUS
  0
LAYER
  2
BLUE4
  70
0
  62
5
  6
CONTINUOUS
  0
LAYER
  2
GREEN4
  70
0
  62
3
  6
CONTINUOUS
  0
LAYER
  2
CYAN4
  70
0
  62
4
  6
CONTINUOUS
  0
LAYER
  2
RED4
  70
0
  62
1
  6
CONTINUOUS
  0
LAYER
  2
MAGENTA4
  70
0
  62
6
  6
CONTINUOUS
  0
LAYER
  2
YELLOW4
  70
0
  62
2
  6
CONTINUOUS
  0
ENDTAB
  0
ENDSEC
  0
SECTION
  2
ENTITIES
0
LINE
8
BLACK
6
CONTINUOUS
10
210.473
20
-32.009
11
210.479
21
-32.009
0
LINE
8
BLACK
6
CONTINUOUS
10
210.479
20
-32.009
11
210.485
21
-32.0113
0
LINE
8
BLACK
6
CONTINUOUS
10
210.485
20
-32.0113
11
210.492
21
-32.0124
0
LINE
8
BLACK
6
CONTINUOUS
10
210.492
20
-32.0124
11
210.498
21
-32.0158
0
LINE
8
BLACK
6
CONTINUOUS
10
210.498
20
-32.0158
11
210.504
21
-32.018
0
LINE
8
BLACK
6
CONTINUOUS
10
210.504
20
-32.018
11
210.509
21
-32.0223
0
LINE
8
BLACK
6
CONTINUOUS
10
210.509
20
-32.0223
11
210.515
21
-32.0257
0
LINE
8
BLACK
6
CONTINUOUS
10
210.515
20
-32.0257
11
210.519
21
-32.0308
0
LINE
8
BLACK
6
CONTINUOUS
10
210.519
20
-32.0308
11
210.524
21
-32.035
0
LINE
8
BLACK
6
CONTINUOUS
10
210.524
20
-32.035
11
210.528
21
-32.0408
0
LINE
8
BLACK
6
CONTINUOUS
10
210.528
20
-32.0408
11
210.532
21
-32.0459
0
LINE
8
BLACK
6
CONTINUOUS
10
210.532
20
-32.0459
11
210.534
21
-32.0522
0
LINE
8
BLACK
6
CONTINUOUS
10
210.534
20
-32.0522
11
210.538
21
-32.058
0
LINE
8
BLACK
6
CONTINUOUS
10
210.538
20
-32.058
11
210.539
21
-32.0645
0
LINE
8
BLACK
6
CONTINUOUS
10
210.539
20
-32.0645
11
210.541
21
-32.0708
0
LINE
8
BLACK
6
CONTINUOUS
10
210.541
20
-32.0708
11
210.541
21
-32.0774
0
LINE
8
BLACK
6
CONTINUOUS
10
210.541
20
-32.0774
11
210.541
21
-32.0774
0
LINE
8
BLACK
6
CONTINUOUS
10
210.541
20
-32.0774
11
210.541
21
-132.091
0
LINE
8
BLACK
6
CONTINUOUS
10
210.541
20
-132.091
11
210.541
21
-132.091
0
LINE
8
BLACK
6
CONTINUOUS
10
210.541
20
-132.091
11
210.541
21
-132.097
0
LINE
8
BLACK
6
CONTINUOUS
10
210.541
20
-132.097
11
210.539
21
-132.103
0
LINE
8
BLACK
6
CONTINUOUS
10
210.539
20
-132.103
11
210.538
21
-132.11
0
LINE
8
BLACK
6
CONTINUOUS
10
210.538
20
-132.11
11
210.534
21
-132.116
0
LINE
8
BLACK
6
CONTINUOUS
10
210.534
20
-132.116
11
210.532
21
-132.122
0
LINE
8
BLACK
6
CONTINUOUS
10
210.532
20
-132.122
11
210.528
21
-132.127
0
LINE
8
BLACK
6
CONTINUOUS
10
210.528
20
-132.127
11
210.524
21
-132.133
0
LINE
8
BLACK
6
CONTINUOUS
10
210.524
20
-132.133
11
210.519
21
-132.137
0
LINE
8
BLACK
6
CONTINUOUS
10
210.519
20
-132.137
11
210.515
21
-132.142
0
LINE
8
BLACK
6
CONTINUOUS
10
210.515
20
-132.142
11
210.509
21
-132.146
0
LINE
8
BLACK
6
CONTINUOUS
10
210.509
20
-132.146
11
210.504
21
-132.15
0
LINE
8
BLACK
6
CONTINUOUS
10
210.504
20
-132.15
11
210.498
21
-132.152
0
LINE
8
BLACK
6
CONTINUOUS
10
210.498
20
-132.152
11
210.492
21
-132.156
0
LINE
8
BLACK
6
CONTINUOUS
10
210.492
20
-132.156
11
210.485
21
-132.157
0
LINE
8
BLACK
6
CONTINUOUS
10
210.485
20
-132.157
11
210.479
21
-132.159
0
LINE
8
BLACK
6
CONTINUOUS
10
210.479
20
-132.159
11
210.473
21
-132.159
0
LINE
8
BLACK
6
CONTINUOUS
10
210.473
20
-132.159
11
210.473
21
-132.159
0
LINE
8
BLACK
6
CONTINUOUS
10
210.473
20
-132.159
11
50.4594
21
-132.159
0
LINE
8
BLACK
6
CONTINUOUS
10
50.4594
20
-132.159
11
50.4594
21
-132.159
0
LINE
8
BLACK
6
CONTINUOUS
10
50.4594
20
-132.159
11
50.4528
21
-132.159
0
LINE
8
BLACK
6
CONTINUOUS
10
50.4528
20
-132.159
11
50.4465
21
-132.157
0
LINE
8
BLACK
6
CONTINUOUS
10
50.4465
20
-132.157
11
50.44
21
-132.156
0
LINE
8
BLACK
6
CONTINUOUS
10
50.44
20
-132.156
11
50.4342
21
-132.152
0
LINE
8
BLACK
6
CONTINUOUS
10
50.4342
20
-132.152
11
50.4279
21
-132.15
0
LINE
8
BLACK
6
CONTINUOUS
10
50.4279
20
-132.15
11
50.4228
21
-132.146
0
LINE
8
BLACK
6
CONTINUOUS
10
50.4228
20
-132.146
11
50.417
21
-132.142
0
LINE
8
BLACK
6
CONTINUOUS
10
50.417
20
-132.142
11
50.4128
21
-132.137
0
LINE
8
BLACK
6
CONTINUOUS
10
50.4128
20
-132.137
11
50.4077
21
-132.133
0
LINE
8
BLACK
6
CONTINUOUS
10
50.4077
20
-132.133
11
50.4043
21
-132.127
0
LINE
8
BLACK
6
CONTINUOUS
10
50.4043
20
-132.127
11
50.4
21
-132.122
0
LINE
8
BLACK
6
CONTINUOUS
10
50.4
20
-132.122
11
50.3978
21
-132.116
0
LINE
8
BLACK
6
CONTINUOUS
10
50.3978
20
-132.116
11
50.3944
21
-132.11
0
LINE
8
BLACK
6
CONTINUOUS
10
50.3944
20
-132.11
11
50.3933
21
-132.103
0
LINE
8
BLACK
6
CONTINUOUS
10
50.3933
20
-132.103
11
50.391
21
-132.097
0
LINE
8
BLACK
6
CONTINUOUS
10
50.391
20
-132.097
11
50.391
21
-132.071
0
LINE
8
BLACK
6
CONTINUOUS
10
50.391
20
-132.071
11
50.391
21
-32.0774
0
LINE
8
BLACK
6
CONTINUOUS
10
50.391
20
-32.0774
11
50.391
21
-32.0774
0
LINE
8
BLACK
6
CONTINUOUS
10
50.391
20
-32.0774
11
50.391
21
-32.0708
0
LINE
8
BLACK
6
CONTINUOUS
10
50.391
20
-32.0708
11
50.3933
21
-32.0645
0
LINE
8
BLACK
6
CONTINUOUS
10
50.3933
20
-32.0645
11
50.3944
21
-32.058
0
LINE
8
BLACK
6
CONTINUOUS
10
50.3944
20
-32.058
11
50.3978
21
-32.0522
0
LINE
8
BLACK
6
CONTINUOUS
10
50.3978
20
-32.0522
11
50.4
21
-32.0459
0
LINE
8
BLACK
6
CONTINUOUS
10
50.4
20
-32.0459
11
50.4043
21
-32.0408
0
LINE
8
BLACK
6
CONTINUOUS
10
50.4043
20
-32.0408
11
50.4077
21
-32.035
0
LINE
8
BLACK
6
CONTINUOUS
10
50.4077
20
-32.035
11
50.4128
21
-32.0308
0
LINE
8
BLACK
6
CONTINUOUS
10
50.4128
20
-32.0308
11
50.417
21
-32.0257
0
LINE
8
BLACK
6
CONTINUOUS
10
50.417
20
-32.0257
11
50.4228
21
-32.0223
0
LINE
8
BLACK
6
CONTINUOUS
10
50.4228
20
-32.0223
11
50.4279
21
-32.018
0
LINE
8
BLACK
6
CONTINUOUS
10
50.4279
20
-32.018
11
50.4342
21
-32.0158
0
LINE
8
BLACK
6
CONTINUOUS
10
50.4342
20
-32.0158
11
50.44
21
-32.0124
0
LINE
8
BLACK
6
CONTINUOUS
10
50.44
20
-32.0124
11
50.4465
21
-32.0113
0
LINE
8
BLACK
6
CONTINUOUS
10
50.4465
20
-32.0113
11
50.4528
21
-32.009
0
LINE
8
BLACK
6
CONTINUOUS
10
50.4528
20
-32.009
11
50.4594
21
-32.009
0
LINE
8
BLACK
6
CONTINUOUS
10
50.4594
20
-32.009
11
50.4594
21
-32.009
0
LINE
8
BLACK
6
CONTINUOUS
10
50.4594
20
-32.009
11
210.473
21
-32.009
0
LINE
8
BLACK
6
CONTINUOUS
10
210.473
20
-32.009
11
210.473
21
-32.009
0
LINE
8
BLACK
6
CONTINUOUS
10
50.541
20
-32.159
11
50.541
21
-132.009
0
LINE
8
BLACK
6
CONTINUOUS
10
50.541
20
-132.009
11
210.391
21
-132.009
0
LINE
8
BLACK
6
CONTINUOUS
10
210.391
20
-132.009
11
210.391
21
-32.159
0
LINE
8
BLACK
6
CONTINUOUS
10
210.391
20
-32.159
11
50.541
21
-32.159
  0
ENDSEC
  0
EOF
